<?xml version="1.0" encoding="UTF-8"?>
<svg xmlns="http://www.w3.org/2000/svg" viewBox="0 0 1525.93 840.3">
  <defs>
    <style>
      .cls-1 {
        font-family: BrandonGrotesque-Black, 'Brandon Grotesque';
        font-size: 136px;
        font-weight: 800;
        letter-spacing: 0em;
      }
    </style>
  </defs>
  <g id="Layer_2" data-name="Layer 2">
    <g>
      <path d="M866.37,204.65c-.03-.08-.05-.17-.08-.25,.03,.08,.05,.17,.08,.25Zm.22,.81c.02,.09,.04,.18,.07,.27-.02-.09-.04-.18-.07-.27Zm1.2,259.03c.12-.04,.24-.08,.36-.12-.12,.04-.24,.08-.36,.12Zm2.58-.07c.08,.03,.17,.06,.25,.09-.09-.03-.17-.06-.25-.09Zm69.26-53.79c1.21,.62,1.73,2.12,1.29,3.38-.32,.99-1.09,1.72-1.84,2.4-.94,.95-1.99,1.74-3.14,2.41-1.33,.99-2.79,1.77-4.26,2.54-2.86,1.46-5.81,2.86-8.93,3.65,1.65,.89,3.32,1.74,5.06,2.46,2.74,1.03,1.57,3.7,.66,5.66,1.57,.53,3.24,.58,4.87,.75,1.99,.23,4.01,.63,5.84,1.47,1.81,1.08,1.13,3.64,.11,5.05-1.82,2.26-4.47,4.2-6.81,5.8-2.29,1.55-5.02,2.25-7.39,3.66,1,.71,2.1,1.24,3.18,1.82,1.61,.81,4.43,2.15,3.3,4.38-1.73,2.14-3.42,4.35-5.68,5.95-3.9,2.59-8.57,4-13.25,3.96,.59,2.48-1.86,3.12-3.78,3.35-3.32,.61-6.69,.93-10.08,.89-1.99-.11-3.98-.31-5.96-.47-2.31-.29-4.6-.74-6.9-1.08-2.63-.3-5.22-1.35-7.77-1.9-1.5-.33-2.49-.44-3.84-.92,.38,3.57-.06,7.14-.44,10.69h0c.03,1.31,.06,2.62,.03,3.94,0,.08,0,.16,0,.24,.08,3.05-1.56,3.01-4.19,2.94-.94-.12-2.63-.1-3.34-.86-.71,.04-1.42,.05-2.14,0-1.1-.09-2.46-.4-2.94-1.54-.19-.43-.18-.88-.04-1.29-.09-.38-.12-.79-.15-1.19-.12-1.81-.33-3.61-.35-5.42-.07-2.19-.13-4.4,.08-6.58-2.24,.51-4.56,.7-6.85,.72-2.71-.11-6.3-.93-6.89-4.04-2.94,.39-5.77,1.34-8.71,1.74-2.19,.38-4.41,.46-6.63,.37-3.37,.05-6.72-.18-10.04-.77-2.63-.19-5.25-.53-7.79-1.27-1.27-.34-2.51-.79-3.75-1.23-1.45-.48-2.94-.79-4.42-1.2-1.21-.38-2.49-.57-3.63-1.13-.75-.42-1.32-1.12-1.44-1.98-.19-1.48,1-2.55,1.82-3.63-7.48-2.37-14.85-5.78-18.3-13.31-.99-1.98-.56-4.37,.91-5.98,.5-.56,1.19-.87,1.91-1.04,1.16-.47,2.43-.68,3.68-.64,1.79,.02,3.44,.69,5.15,1.12,1,.2,2,.36,3.01,.48-1.36-3.64-.84-5.94,3.4-6.31,3.57-.38,7.19-.39,10.77-.11-3.03-1.76-5.42-4.49-7.51-7.26-1.25-1.8-2.47-3.81-3.67-5.58-1.23-1.78-2.45-3.58-3.57-5.43-2.74-4.04-.08-5.72,3.72-6.81-1-1.55-2.1-3.1-2.54-4.91-.58-2.52,.97-4.45,3.47-4.76,1.73-.3,3.51-.3,5.25-.12,1.76,.22,3.46,.72,5.22,.94-1.04-1.33-1.85-2.81-2.72-4.25-.7-1.17-1.38-2.35-1.81-3.64-.52-1.39,.42-3,1.9-3.17,2.11-.06,4.21,.48,6.32,.07-1.95-1.91-3.9-3.81-5.81-5.75-2.79-2.69-5.37-5.74-6.45-9.53-.62-1.83-1.33-3.69-1.26-5.65,0-2.75,.72-4.88,3.94-3.93,1.22,.31,2.41,.75,3.64,1.02,1.91,.39,3.81,.85,5.56,1.71-.76-2.2-.99-4.64-.6-6.93,.59-1.8,2.08-1.76,3.67-1.74,1.81-.13,3.77,.23,5.45-.59-.94-6.28-.89-9.23,6.44-7.26,3.15,.78,6.07,2.75,9.43,2.3-2.03-1.52-4.43-2.43-6.66-3.62-1.74-.9-3.32-2.09-5.03-3.03-1.82-.97-3.71-1.81-5.36-3.08-1.94-1.63-3.69-3.69-5.22-5.71-1.53-2.22-2.64-4.77-2.9-7.47-.17-1.26-.37-2.9,.77-3.78,.64-.53,1.49-.48,2.27-.39,2.61,.08,4.68,.09,7.11,.34-.86-1.63-1.38-3.44-1.37-5.3-.03-1.22,.03-2.8,1.38-3.31,.89-.32,1.84-.07,2.75,0,1.27,.14,2.54,.26,3.82,.37-1.1-2.52-1.13-5.3-2.02-7.88-.64-2.05-1.9-5.41,1.04-6.21-1.56-2.05-3.23-4.09-4.12-6.54-.39-1.08-.68-2.18-1-3.28-.34-1.13-.74-2.29-.78-3.48-.04-.97,.08-1.95,.17-2.91,.06-.65,.21-1.27,.75-1.69,1.65-1.2,3.06,.82,4.48,1.45,1.33,.64,2.77,.98,4.16,1.46,1.43,.45,2.78,1.11,4.2,1.58-.94-1.81-1.82-4.56-.22-6.25,.64-.55,1.42-.9,2.21-1.19-1.3-2.41-2.02-5.01-2.71-7.64-.78-2.27-1.74-6.87,1.78-7.12,1.26,.04,2.3,.93,3.4,1.45,.57,.28,1.15,.54,1.75,.77,1.07,.36,2.19,.52,3.3,.75,1.35,.27,2.68,.63,4.05,.75-.12-.7-.4-1.35-.57-2.03-.3-1.16-.38-2.36-.5-3.55-.26-2.71-.81-5.38-1.02-8.09-.05-2.06-.24-4.15,.05-6.19,.34-1.77,2.29-2.23,3.75-2.78-.21-2.73-.73-5.43-1.32-8.11-.25-1.16-.33-2.36-.56-3.52-.16-1.17-.09-2.71,1.13-3.29,.6-.27,1.26-.14,1.89-.19,1.56-.15,3.08-.63,4.55-1.17-4.67-14.88-2.63-8,1.8-21.13,.8-1.75,1.36-3.77,2.54-5.29,.64-.41,1.19-.11,1.42,.42,.26,.03,.53,.13,.74,.3,2.18,1.47,2.69,4.23,3.75,6.47,1.16,2.28,1.66,4.83,2.93,7.06,.59-.02,1.14-.19,1.68-.41,1.8-.48,1.89,1.52,1.89,2.78,.04,2.04-.01,4.11-.41,6.12-.29,1.46-.71,2.89-.93,4.36,2.1,.03,5.54-1.26,6.32,1.54,.45,1.77,.27,3.61,.21,5.41-.05,1.67-.17,3.36-.45,5.01,1.91,.4,4.58-.39,5.82,1.5,.83,1.85,.65,4.02,.63,6.01-.1,2.65-.77,5.23-1.14,7.84,.76-.25,1.55-.39,2.32-.58,1.67-.58,2.93-.15,3.4,1.65,.61,2.47,.52,5.06,.69,7.59,.08,1.3-.12,2.65,.13,3.93,1.64,.47,3.28-.05,4.93-.07,2.52,0,2.78,2.45,2.73,4.43,.22,3.44-1.92,6.31-3.82,8.97-1.74,2.59-3.13,5.38-4.59,8.12,2.77-.16,5.72-1.59,8.42-.44,1.42,.81,1.3,2.64,1.39,4.06,.67,.03,1.35,.02,2.02-.02,1.05-.06,2.14-.5,3.17-.11,2.3,1.11,1.07,4.17,.32,5.95-1.05,2.41-2.56,4.58-3.83,6.88-1.4,2.43-2.9,4.8-4.53,7.08,1.31-.12,2.62-.4,3.93-.31,4.38,.68,1.38,5.98,.46,8.47,3.75-1.42,7.49-2.91,11.14-4.58,4.99-3.05,4.61,2.43,4.75,5.79,1.67,.86,3.63,.02,5.38,.44,4.27,1.79-.35,9.48-1.89,12.09,1.68,.15,3.36-.2,5.04-.08,3.17,.77,1.54,4.72,.6,6.72-1.3,2.56-2.85,4.99-4.49,7.34-1.77,2.78-3.8,5.36-6.25,7.57,1.81,.59,4.04,1.4,3.48,3.75-.3,.9-.79,1.74-1.2,2.59-2.5,4.28-5.7,8.21-9.73,11.13,3.21,.19,6.42-.19,9.43-1.34,3.13-.97,6.26-1.97,9.39-2.94,1.2-.42,2.38-.9,3.62-1.2,.85-.17,1.76-.47,2.61-.17,2.7,1.39,.54,5.08,.02,7.08,1.48,1.37,4.26,1.88,4.56,4.2,.02,2.21-5.09,5.95-6.9,7.11-3.63,2.33-7.42,4.39-11.19,6.5-3.05,1.75-6.18,3.36-9.43,4.69,.91,.89,2.13,1.34,3.3,1.76,2.79,.94,5.62,1.85,8.56,2.09,2.05,.08,4.09-.12,6.14-.08,1.47,.07,3.16-.23,4.47,.54,1.19,.95,.79,2.58,.21,3.76-.46,1.09-.95,2.16-1.41,3.25,1.58,.74,3.4,.76,4.94,1.59Zm-73.43-206.51c-.03-.09-.06-.17-.1-.26,.03,.09,.07,.17,.1,.26Z"/>
      <path d="M748.82,404.35c5.28-.83,7.64-1.42,7.58,5,.01,3.46-1.2,6.78-2.42,9.97-1.21,3.3-3.32,6.13-5.19,9.07,1.33,.2,2.66,.69,3.68,1.6,3.4,3.19-2.24,7.59-4.67,9.49-2.59,2.06-5.83,2.91-8.89,4.02,1.24,1.62,1.04,3.29-.55,4.55-.8,.73-1.69,1.35-2.56,2-1.82,1.37-4.05,1.96-6.13,2.79-2.26,.84-4.65,1.25-7.05,1.35-3.5,.27-7.05,.29-10.53-.23-.03,2-2.38,2.81-3.95,3.44-2.4,.86-5,1.14-7.55,1.14-.13,0-.25,0-.38,0-3.79-.13-7.28-1.66-10.84-2.78-1.82-.57-3.73-.75-5.58-1.15-2.03-.36-4.11-.41-6.17-.5-.56-.04-1.12-.06-1.68-.05,.01,.2,.03,.39,.07,.56,.26,1.85,.28,3.72,.32,5.58,.1,3.03-.02,6.05-.05,9.07-.05,3.19,.06,6.37,.05,9.55,0,.67,.02,1.35,.14,2.02,.23,.52,.17,1.15-.18,1.6-.09,.12-.19,.21-.3,.3-.39,.34-.96,.45-1.43,.48-1.32,.33-2.64,.79-4.02,.79-.08,0-.15,0-.23,0-1.94-.12-4.41,0-5.58-1.85-.12-.2-.25-.44-.33-.68-.22-.16-.39-.4-.47-.72-.28-2.48-.86-4.92-1.1-7.41-.38-3.23-.71-6.49-.35-9.74,.11-1.81,.17-3.63,.22-5.44,.02-.66,.04-1.32,.07-1.98-.22,.07-.44,.14-.66,.22-5.74,2-11.51,4.04-17.51,5.08-2.22,.5-4.48,1.04-6.76,1.04-.26,0-.52,0-.79-.02-3.02-.06-8.71-.33-7.6-4.75,.46-1.68,1.19-3.29,1.58-5-2.12,.12-4.24,.13-6.36,.12-2.28,0-4.57,.06-6.82-.38-3.78-.59-13.04-3.34-7.38-8.1-3.32-1.71-6.81-3.02-10.14-4.69-2.11-1.01-4.14-2.21-5.83-3.83-3.17-2.93-6.7-5.91-8.33-10.02-.34-1-.17-2.37,.93-2.81,1.44-.45,2.99,.12,4.44,.26-2.86-3.61-4.68-7.89-5.74-12.34-.62-2.45-1.26-5.07-.63-7.58,.64-2.6,3.33-2.49,5.7-2.38,.67,.03,1.32,.06,1.88,.03,.84,.01,1.69,.02,2.53,.09,1.95,.18,3.85,.97,5.84,.67,.8-5.56,3.49-3.56,7.55-4.37-1.81-3.9-3.52-7.84-5.39-11.71-1.99-3.45-3.83-6.98-5.73-10.48-1.71-3.02-2.89-9.66,1.38-11.03,1.8-.55,3.7-.26,5.53-.19,.89,.04,1.77,.05,2.66,.12,2.47,.15,4.77,1.18,7.22,1.4-.75-2.33-1.51-4.66-2.59-6.86-1.99-3.71-3.69-8.16,1.69-9.7-.71-1.73-1.26-3.52-1.97-5.24-1.01-2.14-1.67-4.42-1.63-6.81-.21-3.96-1.12-11.02,5.11-9.29,1.87,.53,3.36,1.86,5.12,2.66-1.41-3.33-3.03-6.6-4.13-10.05-.49-1.63-1.06-3.28-.99-5.01,.05-1.3,.05-2.75,.83-3.84,.9-1.24,2.59-1.09,3.95-1.13,1.39-.04,2.77,.16,4.12,.48-.64-2.73-2.47-7.97,.91-9.49,3.12-1.06,6.49,.08,9.52,.96,2.65,.95,5.33,1.96,7.76,3.39,1.65,1.11,3.3,2.24,5.12,3.04-.49-1.63-.99-3.28-1.95-4.7-1.87-2.79-4.52-4.84-6.97-7.09-2.11-1.73-4.45-3.19-6.24-5.28-1.95-2.15-3.59-5.62-.21-7.31-.46-2.64-2.74-13.06,2.03-12.41,3.88,.42,7.8,1.01,11.52,2.22-1.06-3.03-1.67-6.19-2.77-9.21-1.37-3.49-2.21-7.31-1.69-11.06,.28-2.67,1.9-3.2,4.28-2.53,1.28,.25,2.57,.47,3.8,.93-.86-8.23,2.62-6.77,8.43-4.24-.2-.74-.52-1.43-.79-2.15-.57-1.93-1.14-3.87-1.76-5.79-.53-2.23-1-4.48-1.59-6.69-.59-2.78-1.88-5.76-.94-8.59,.38-.98,1.35-1.8,2.45-1.63,.61,.07,1.16,.48,1.48,1,.55,.47,1.14,.89,1.68,1.37,1.69,1.58,2.96,3.64,5.12,4.65,.4-2.52,1.21-4.93,1.77-7.41,.58-2.42,1.41-4.78,2.15-7.15,.31-.67,.53-1.49,1.15-1.94,.14-.08,.29-.09,.43-.06,0,0,.01,0,.02-.01,1.37-.63,1.55,1.05,1.83,1.96,.31,1.03,.61,2.07,.95,3.09,.42,1.11,.75,2.26,.97,3.43,.48,2.03,1.15,4,1.63,6.03,.47-.53,.94-1.06,1.42-1.58,.39-.49,.8-1.02,1.43-1.18,.92-.29,1.78,.33,2.17,1.14,1.12,1.71,1.72,3.66,1.98,5.68,.89,4.01,.99,8.12,.87,12.22,1.04-.75,2.1-1.49,3.12-2.27,1.13-.76,2.48-2.12,3.95-1.64,1.93,.99,.55,3.64,.31,5.24-.35,1.68-.8,3.34-1.2,5.01,1.64-.81,4.54-2.5,5.63-.13,1.05,3.94-.35,8.05-1.24,11.9-1.2,4.52-3.49,8.75-3.98,13.45,1.63-.83,3.4-1.29,5.16-1.73,1.48-.42,3.02-.77,4.55-.39,2.26,.28,2.57,2.95,2.48,4.79,1.44-.02,2.57-1,3.88-1.43,2.44-.91,3.96,.54,3.87,3.02,.28,3.55-.33,7.1-1.15,10.54-.5,3.19-.84,6.41-1,9.64,1.89-.79,6.22-3.65,7.65-1.22,.64,1.49,.34,3.18,.44,4.75,1.63-.25,3.39-.87,4.99-.18,1.85,.8,2.77,2.81,2.37,4.75-.37,1.95-1.32,3.72-2.22,5.46-1.28,2.31-2.75,4.52-4.27,6.68,2.26,1.4,2.72,3.82,1.58,6.14-.79,2.01-2.05,3.76-3.36,5.45-1.38,1.74-2.42,3.7-3.55,5.6,1.79-1.21,3.75-2.15,5.56-3.33,2.04-1.4,5.03-3.52,7.61-2.85,1.73,.8,1.56,3.05,1.71,4.66,5.77-1.99,6.46,2.28,5.37,6.86-1.08,4.57-3.12,8.84-3.9,13.44,1.91-.96,6.59-3.03,7.77-.25,.54,1.68,.31,3.52,.47,5.27,4.2-1.02,5.15,3.34,3.99,6.48-1.25,3.37-2.54,6.72-3.8,10.08,1.82-.9,3.66-1.9,5.64-2.39,1.59-.23,3.03,1.06,3.47,2.51,.38,1.24,.23,2.56-.22,3.76-1.72,5.43-6.06,9.39-8.8,14.27,1.35-.56,3.29-1.19,4.21,.37,.71,1.22,.04,2.64-.21,3.91-.23,.94-.47,1.89-.69,2.84,1.74-1.2,3.51-2.35,5.38-3.33,.86-.5,1.77-.92,2.78-.95,2.94,0,2.72,3.12,2.67,5.24Z"/>
      <path d="M769.93,459.1c-.02-.44-.04-.88-.06-1.33,.02,.44,.04,.88,.06,1.33Zm62.47-22.52c6.39,3.43,3.86,6.46-1.78,8.29-2.7,.63-5.55,.26-8.21,1.14,.72,1.24,1.73,2.3,2.79,3.27,1.13,.85,2.25,2.37,1.22,3.73-.76,.9-1.8,1.53-2.76,2.2-1.33,.93-2.58,1.98-3.99,2.79-3.3,2.02-5.99,2.52-9.82,2.4-.21,2.9-2.67,3.88-5.16,3.88-.7,0-1.4-.08-2.06-.21-2.14-.27-4.23-.76-6.36-1.11-2.07-.39-4.06-1.08-6.09-1.64-3.24-.76-6.29-2.09-9.3-3.5-1.53-.68-3-1.49-4.45-2.31-1.49-.69-2.93-1.51-4.35-2.33-.12-.03-.24-.07-.36-.1,.33,2.7,.55,5.42,.84,8.12,.43,5.46,.46,10.94,.34,16.41,.01,.98-.02,2.14,.03,3.07,.17,.41,.27,.88,.06,1.31-.22,.56-.77,.85-1.32,.85-.05,0-.1,0-.14,0-1.25,.52-2.61,.69-3.97,.69-.86,0-1.73-.07-2.57-.16-1.08-.17-2.57-.49-2.84-1.73,.01-.53-.02-1.04-.11-1.57-.29-3.05-.41-6.15-.6-9.06-.23-4.18-.45-8.33-.66-12.51-.18-2.5-.24-5.26,.05-7.7,.06-.51,.02-1.05,.05-1.57-.6-.05-1.19,.13-1.68,.51-1.5,1.05-2.82,2.33-4.32,3.37-1.56,1.02-3.05,2.15-4.69,3.02-2.27,1.15-4.5,2.4-6.83,3.41-3.65,1.46-7.57,1.88-11.49,1.88-1.34,0-2.69-.05-4.02-.13-1.26-.12-2.53-.11-3.81-.11-2.27,.01-4.54,.02-6.71-.68-3.65-1.5-3.77-5.57-2.17-8.67,.79-1.67,1.8-3.22,2.68-4.84,.39-.86-.03-1.81-.27-2.65-1.34-3.21,.55-4.35,2.98-6,2.98-2.01,6.48-2.9,9.7-4.43,1.07-.48,2.16-.94,3.22-1.45,1.13-.56,2.29-1.22,2.69-2.47-5.46,.05-10.66,.04-15.36-3.16-2.17-1.56-6.16-3.21-6.64-6.06-.44-3.71,2.58-5.18,5.04-7.22-4.34-3.33-.88-5.24,1.7-8.11,2.03-2.22,4.61-4.32,6.59-6.4,1.35-1.68,2.89-3.24,4.13-5-3.43-1.34-7.41-4.18-7.12-8.28,.14-1.64,.99-3.09,1.43-4.65-.84-.9-2.07-1.33-3.08-2.01-.94-.58-1.85-1.27-2.6-2.1-1.23-1.34-2.64-3.21-1.74-5.08,.98-1.98,2.53-3.62,3.89-5.35,1.66-2.11,3.65-3.92,5.72-5.62,2.44-2.26,5.19-4.11,8.01-5.85-.73-1.23-2.02-1.93-3.01-2.92-1.86-2.01-1.96-4.6-.98-7.05-.95-.88-1.85-1.81-2.65-2.82-1-1.13-2.03-2.38-2.25-3.92-.15-1.28-.05-2.57,0-3.85,.08-1.77,.49-3.48,.93-5.19,.22-.92,.46-1.85,.91-2.68,.94-1.75,2.74-2.76,4.17-4.07,.86-.82,1.94-1.65,2.25-2.85,.07-1.48-.11-2.97-.58-4.38-.82-2.43-2.47-4.71-2.26-7.38,.1-2.65,.91-5.2,1.87-7.65,.74-1.97,1.69-3.87,2.98-5.55,.57-.76,1.33-1.36,1.93-2.1-.27-4.83-2.18-9.74-.84-14.55,.41-1.7,1.88-2.7,2.85-4.05,.48-.84,1.16-1.64,1.39-2.59,0-.66-.15-1.31-.26-1.96-.58-2.76-2.18-6.11-.03-8.57,.47-.47,1.1-.75,1.7-1.02,1.97-.87,3.56-1.47,5.28-2.51-.25-1.13-.86-2.13-1.34-3.17-1.71-4.01-3.86-7.99-4.33-12.38-.05-1.76-.45-4.15,1.3-5.24,1.83-1.03,4.16-1,5.79-2.39-.92-1.66-1.39-3.71-.32-5.42,1.93-3.79,3.49-7.74,4.96-11.72,.94-2.79,1.75-5.62,2.52-8.47,.46-1.76,.78-3.56,1.16-5.34,.36-1.6,.89-3.14,1.31-4.72,.59-2.32,1.3-4.65,2.65-6.65,.23-.84,.54-1.66,.85-2.47,.53-1.23,1.08-2.96,2.64-3.11,3.2-.13,4.73,4.32,5.97,6.68,1.6,3.39,1.39,7.22,2.06,10.83,1.3,5.12,2.34,10.39,3.5,15.48,.6,2.23,1.48,4.37,2.42,6.48,1.29,2.96,2.99,5.27-1.53,6.11,2.03,2.36,4.29,4.51,6.57,6.62,1.12,1.18,2.66,2.28,2.89,3.99,.11,1.68-1.64,2.8-1.79,4.45,3.4,4.08,3.77,7.95-1.21,10.85,2.42,2.56,5.02,5.06,6.68,8.21,1.79,3.14-2.4,4.6-4.62,5.58,.48,1.05,1.19,1.99,1.76,2.99,1.14,2.13,2.25,4.26,3.39,6.38,1.26,2.29,.75,3.28-1.04,5-1.6,1.7-3.84,2.41-5.84,3.5,.53,1.73,1.73,3.26,3.23,4.26,1.07,.67,2.19,1.27,3.3,1.87,1.84,.97,6.32,2.54,5.35,5.22-.7,1.94-1.49,3.89-2.71,5.56-1.35,1.91-3.08,3.49-4.55,5.3,.98,1.9,2.92,3.01,4.6,4.21,1.32,.99,3.02,1.33,4.3,2.36,1.45,1.37,0,3.36-.88,4.58-1.31,1.88-3.15,3.39-5.32,4.15-2.03,.64-4.04,1.34-6.02,2.12,1.51,4.46,7.51,5,11.11,7.17,1.66,.91,3.32,1.84,4.89,2.91,1.11,.77,2.07,1.81,2.42,3.15,.65,3.1-2.07,5.69-4.36,7.34,.63,.67,1.34,1.25,2.09,1.78,1.3,.82,2.77,1.34,4,2.29,1.83,1.48,3.11,3.86,2.76,6.26-.5,2.7-2.84,4.46-4.9,6.02,.31,.97,.95,1.8,1.59,2.57,1.22,1.36,3.5,2.66,2.77,4.81-.93,2.4-4.07,4.26-6.53,4.65-2.95,.42-6.03,.35-8.77,1.68,.95,2.9,3.92,4.53,6.46,5.88,4.25,2.44,8.99,3.8,13.33,6.06,2.44,1.24,4.82,2.98,5.99,5.53,1.96,3.79-6.61,7.07-9.28,8.09,1.85,2.8,4.87,4.54,6.94,7.15,1.39,1.59,2.2,3.9,1.42,5.95-1.1,2.76-4.1,3.99-6.32,5.72,2.3,2.02,5.24,3.04,7.74,4.77,2.29,1.36,4.41,2.98,6.58,4.52,1.71,1.13,3.46,2.17,5.22,3.22Z"/>
    </g>
  </g>
  <g id="Layer_1" data-name="Layer 1">
    <g>
      <path d="M.35,192.85c-.84-1.59-.14-3.8,1.88-4.86,14.24-7.5,28.57-14.77,42.98-21.82,21.97-10.76,46.21-5.71,53.97,11.52,5.71,12.62-2.58,27.51-9.05,35.57,11.22-.97,29.41,.43,36.21,15.55,8.24,18.41-2.89,39.38-23.18,49.28-14.16,6.9-28.24,14.03-42.23,21.39-1.86,.98-3.97,.26-4.81-1.33C37.52,263.06,18.93,227.96,.35,192.85Zm64.09,20.82c6.81-3.35,10.08-11.31,6.97-17.8-3.11-6.49-11.15-8.22-18.09-4.81-4.74,2.33-9.48,4.69-14.2,7.08,3.78,7.5,7.57,15,11.35,22.5,4.65-2.35,9.31-4.67,13.98-6.97Zm23.96,42.98c6.78-3.32,10.05-11.27,6.88-17.93-3.1-6.5-13.06-7.72-19.97-4.31-4.78,2.35-9.54,4.72-14.3,7.12,3.86,7.66,7.73,15.32,11.59,22.98,5.26-2.65,10.53-5.27,15.81-7.86Z"/>
      <path d="M110.13,139.88c-.72-1.65,.14-3.79,2.21-4.69,18.78-8.16,37.68-15.95,56.68-23.37,22.98-8.98,47.74,.76,54.87,20.95,5.57,15.61-1.23,32.15-14.83,44.06,13.75,11.08,27.27,22.32,40.56,33.72,2.04,1.75,1.77,4.91-1.24,6-7.85,2.85-15.69,5.77-23.51,8.76-1.41,.54-2.79,.11-3.4-.43-13.53-11.83-27.28-23.5-41.26-35-4.16,1.68-8.32,3.38-12.48,5.1,5.85,14.14,11.7,28.27,17.55,42.41,.69,1.66-.27,3.81-2.01,4.54-6.93,2.89-13.85,5.83-20.74,8.83-1.91,.83-3.95-.05-4.67-1.69-15.91-36.39-31.82-72.79-47.73-109.18Zm76.06,23.01c7.54-2.96,11.57-11.81,8.89-18.88-2.68-7.07-11.45-10.28-19.15-7.26-9.25,3.63-18.48,7.35-27.68,11.16,3.58,8.65,7.16,17.3,10.74,25.94,9.04-3.74,18.11-7.4,27.2-10.96Z"/>
      <path d="M233.8,91.69c-.59-1.7,.62-3.83,2.56-4.49,7.72-2.63,15.45-5.2,23.2-7.71,1.94-.63,4.18,.35,4.73,2.07,12.15,37.81,24.31,75.63,36.46,113.44,.55,1.71-.56,3.77-2.35,4.35-7.15,2.32-14.29,4.69-21.41,7.12-1.78,.61-3.91-.38-4.49-2.08-12.9-37.57-25.79-75.13-38.69-112.7Z"/>
      <path d="M317.65,89.38c-9.15,2.64-18.29,5.36-27.41,8.17-2.1,.65-4.11-.42-4.65-2.14-1.94-6.25-3.88-12.49-5.82-18.74-.53-1.72,.54-3.75,2.68-4.41,28.77-8.86,57.73-16.9,86.85-24.13,2.16-.54,4.13,.65,4.55,2.4,1.56,6.35,3.12,12.7,4.68,19.05,.43,1.75-.73,3.7-2.86,4.23-9.22,2.29-18.43,4.66-27.63,7.12,8.27,30.95,16.55,61.91,24.82,92.86,.46,1.74-.75,3.74-2.55,4.23-7.23,1.95-14.45,3.96-21.66,6.02-1.8,.51-3.87-.57-4.37-2.3-8.88-30.78-17.76-61.57-26.64-92.35Z"/>
      <path d="M414.68,64.64c-9.27,2.06-18.52,4.2-27.76,6.42-2.13,.51-4.06-.68-4.49-2.43-1.55-6.35-3.09-12.71-4.64-19.06-.43-1.75,.77-3.71,2.93-4.23,29.15-7.02,58.45-13.22,87.87-18.61,2.19-.4,4.07,.91,4.39,2.68,1.16,6.44,2.33,12.87,3.49,19.31,.32,1.77-.96,3.65-3.11,4.04-9.32,1.71-18.63,3.5-27.93,5.37,6.33,31.41,12.66,62.81,18.99,94.22,.35,1.76-.97,3.68-2.8,4.06-7.31,1.49-14.62,3.04-21.92,4.64-1.82,.4-3.82-.82-4.21-2.57-6.95-31.28-13.89-62.55-20.83-93.83Z"/>
      <path d="M485.5,146.98c11.78-43.27,25.14-86.46,40.1-129.47,.44-1.16,1.71-2.25,3.11-2.45,.67-.1,1.33-.19,2-.29,1.4-.2,2.93,.49,3.68,1.48,26.49,37.04,51.48,74.7,74.95,112.89,1.35,2.21,.1,4.69-2.67,4.98-6.84,.71-13.69,1.47-20.52,2.28-3.33,.39-4.93-.5-7.01-3.69-2.8-4.43-5.62-8.86-8.46-13.27-16.95,2.15-33.87,4.59-50.75,7.31-1.47,5.1-2.92,10.2-4.35,15.3-.57,2.28-2.24,4.75-5.91,5.37-6.74,1.15-13.47,2.34-20.19,3.58-2.75,.51-4.65-1.52-3.98-4.02Zm70.7-50.34c-6.13-9.16-12.35-18.29-18.65-27.39-.06,0-.13,.02-.19,.03-3.42,10.49-6.74,21-9.97,31.51,9.6-1.47,19.2-2.86,28.82-4.15Z"/>
      <path d="M609.38,8.68c-.17-1.79,1.5-3.4,3.51-3.58,1.67-.15,3.35-.31,5.02-.45,28.76,20.57,56.44,41.9,83.01,63.9,.06,0,.13,0,.19,0-.84-21.28-1.68-42.57-2.52-63.85-.07-1.8,1.47-3.48,3.69-3.56,8.05-.3,16.1-.54,24.15-.72,2.01-.05,3.86,1.54,3.89,3.34,.81,40.37,1.62,80.74,2.43,121.11,.04,1.8-1.61,3.27-3.46,3.31-.99,.02-1.98,.05-2.97,.07-.56,.01-2.05-.49-2.43-.84-25.06-23.18-51.26-45.73-78.59-67.57-.06,0-.13,0-.19,.01,1.67,22.32,3.34,44.63,5.02,66.95,.13,1.8-1.23,3.52-3.27,3.68-7.35,.57-14.7,1.19-22.05,1.86-1.85,.17-3.67-1.29-3.84-3.08-3.86-40.19-7.72-80.39-11.59-120.58Z"/>
      <path d="M785.87,65.5c-13.94-20.24-28.43-40.3-43.47-60.15-1.64-2.32-.07-5.22,3.15-5.26,8.72-.09,17.45-.12,26.17-.07,1.61,0,2.61,.92,3.21,1.64,9.23,12.37,18.24,24.81,27.05,37.33,9.41-12.07,19.02-24.06,28.84-35.96,.63-.69,1.48-1.56,3.29-1.48,8.72,.38,17.43,.83,26.14,1.35,3.22,.19,4.64,3.17,2.89,5.41-16.19,19.02-31.84,38.28-46.94,57.76-.65,19.13-1.3,38.26-1.95,57.38-.06,1.8-1.79,3.36-3.64,3.3-7.37-.23-14.73-.41-22.1-.54-2.04-.03-3.5-1.68-3.48-3.48,.28-19.08,.56-38.15,.84-57.23Z"/>
      <path d="M933.92,66.71c.02-.18,.04-.36,.06-.54-1.15-1.39-2.31-2.79-3.47-4.18-6.95-8.34-11.3-16.53-10.28-26.93,1.28-13.59,16.04-27.84,41.77-24.72,22.92,2.81,38.15,18.61,35.63,35.14-2.98,19.53-25.48,27.09-25.63,28.56,5.04,6.24,10.02,12.51,14.94,18.81,3.02-3.38,6.34-8.71,8.33-12.78,1.71-3.56,3.3-6.24,8.22-3.67,4.44,2.26,8.87,4.55,13.28,6.85,5.07,2.66,2.25,6.57,1.14,8.58-6.64,11.67-15.46,19.93-15.51,20.29,4.59,5.52,9.13,11.06,13.61,16.62,2.06,2.54,3.63,4.45-1.74,8.1-4.02,2.79-8.02,5.6-12,8.43-2.52,1.6-5.69,1.46-8.2-1.84-3.39-4.47-6.82-8.93-10.27-13.38-.04,.04-14.59,11.71-42.19,8.36-23.53-2.81-39.14-19.68-37.51-38.35,2.26-25.89,29.78-33.43,29.82-33.36Zm13.54,49.76c14.58,1.79,21.43-6.49,21.44-6.5-7.1-9.37-14.34-18.7-21.71-27.97,0-.02-14.1,2.72-15.67,17.23-.93,8.59,6.03,16.04,15.94,17.24Zm24.82-72.88c.81-6.06-4.61-12.24-13.13-13.28-7.33-.89-12.16,2.73-12.69,7.38-.62,5.37,2.93,9.21,7.37,15.01,1.27,1.48,2.54,2.97,3.81,4.45-.01-.02,13.3-3.58,14.64-13.56Z"/>
      <path d="M1104.9,37.28c.54-1.54,2.58-2.39,4.17-2.05,1.06,.23,2.11,.46,3.17,.69,.99,.22,2.62,1.31,2.98,2.5,9.69,28.68,18.62,57.43,26.79,86.21,.12,.03,.25,.06,.37,.09,20.8-21.5,42.29-42.6,64.45-63.27,.88-.87,2.84-1.07,3.81-.79,1.04,.3,2.09,.59,3.13,.89,1.56,.45,2.97,2.17,2.72,3.78-3.86,40.86-8.27,81.61-13.24,122.24-.32,2.35-2.41,3.4-4.57,2.75-7.07-2.13-14.14-4.21-21.23-6.24-1.62-.46-2.85-2.31-2.64-3.75,2.35-18.6,4.59-37.23,6.73-55.88-.12-.03-.25-.07-.37-.1-15.7,15.82-31.02,31.86-45.98,48.11-.81,.91-2.66,1.37-3.57,1.14-1.09-.27-2.17-.55-3.26-.82-1.09-.27-2.32-1.51-2.61-2.69-5.55-21.4-11.52-42.8-17.9-64.17-.13-.03-.25-.06-.38-.09-6.86,17.46-13.61,34.95-20.28,52.47-.49,1.37-2.26,2.45-4.09,2.06-7.18-1.56-14.37-3.07-21.56-4.52-2.19-.44-3.53-2.36-2.7-4.58,14.81-38.16,30.16-76.16,46.05-113.99Z"/>
      <path d="M1258.75,80.63c.55-1.71,2.78-2.7,4.72-2.08,7.75,2.5,15.49,5.05,23.21,7.67,1.93,.65,3.15,2.78,2.56,4.48-12.83,37.59-25.65,75.18-38.48,112.77-.58,1.7-2.71,2.69-4.49,2.09-7.13-2.41-14.27-4.77-21.42-7.08-1.79-.58-2.91-2.63-2.36-4.35,12.08-37.84,24.17-75.67,36.25-113.51Z"/>
      <path d="M1318.14,101.83c.8-2.2,3.39-3.37,6.08-2.38,7.48,2.74,14.95,5.53,22.4,8.39,2.48,.95,3.87,3.61,3.03,5.79-5.68,14.72-11.37,29.44-17.05,44.16,19.66-10.22,39.7-20.08,60.11-29.56,1.1-.51,3.15-.63,4.29-.15,7.94,3.35,15.86,6.76,23.77,10.24,3.58,1.58,3.84,6.03,.69,7.58-21.72,9.61-43.04,19.65-63.94,30.1,8.02,24.79,15.37,49.59,22.06,74.39,.81,3.32-2.72,6.08-6.01,4.62-7.98-3.54-15.98-7-24.01-10.39-1.22-.52-2.51-1.84-2.65-2.48-6.16-23.02-12.89-46.05-20.19-69.06-6.44,16.68-12.88,33.36-19.32,50.04-.84,2.18-3.49,3.28-5.78,2.4-6.88-2.63-13.77-5.21-20.67-7.74-2.48-.91-3.57-3.41-2.78-5.61,13.33-36.78,26.67-73.55,40-110.33Z"/>
      <path d="M1442.03,151.62c.75-1.64,2.92-2.42,4.98-1.47,25.81,11.91,51.38,24.52,76.69,37.84,2.02,1.06,2.72,3.27,1.88,4.86-3.06,5.78-6.12,11.56-9.18,17.34-.84,1.59-3.04,2.26-5.03,1.21-16.66-8.77-33.43-17.23-50.32-25.37-3.23,6.7-6.46,13.4-9.7,20.1,13.7,6.61,27.33,13.43,40.89,20.46,1.78,.92,2.64,3.2,1.81,4.79-3.02,5.8-6.05,11.6-9.07,17.4-.92,1.76-3.16,2.21-4.91,1.3-13.33-6.91-26.73-13.62-40.21-20.12-3.52,7.3-7.04,14.59-10.56,21.89,16.11,7.78,32.13,15.85,48.03,24.22,1.9,1,2.51,3.16,1.67,4.75-3.06,5.78-6.12,11.56-9.18,17.34-.84,1.59-2.95,2.31-4.81,1.33-23.36-12.29-46.96-23.94-70.77-34.92-1.9-.88-2.61-2.98-1.86-4.62,16.55-36.11,33.1-72.21,49.65-108.32Z"/>
    </g>
    <g>
      <text class="cls-1" transform="translate(290.44 649.82)"><tspan x="0" y="0">CASCO, MAINE</tspan></text>
      <text class="cls-1" transform="translate(550.54 787.26)"><tspan x="0" y="0">9.30.23</tspan></text>
    </g>
  </g>
</svg>